<svg width="20" height="21" viewBox="0 0 20 21" fill="none" xmlns="http://www.w3.org/2000/svg">
<path d="M3.33829 5.49983H1.67163V17.1665C1.67163 18.0832 2.42163 18.8332 3.33829 18.8332H15.005V17.1665H3.33829V5.49983ZM16.6716 2.1665H6.67163C5.75496 2.1665 5.00496 2.9165 5.00496 3.83316V13.8332C5.00496 14.7499 5.75496 15.4999 6.67163 15.4999H16.6716C17.5883 15.4999 18.3383 14.7499 18.3383 13.8332V3.83316C18.3383 2.9165 17.5883 2.1665 16.6716 2.1665ZM15.8383 9.6665H12.505V12.9999H10.8383V9.6665H7.50496V7.99983H10.8383V4.6665H12.505V7.99983H15.8383V9.6665Z" fill="white"/>
</svg>
