<svg width="22" height="22" viewBox="0 0 22 22" fill="none" xmlns="http://www.w3.org/2000/svg">
<path d="M14.5 3.99483C15.2956 3.99483 16.0587 4.3109 16.6213 4.87351C17.1839 5.43612 17.5 6.19918 17.5 6.99483M20.5 6.99483C20.5001 7.86995 20.3088 8.7345 19.9395 9.52786C19.5702 10.3212 19.0318 11.0242 18.3621 11.5875C17.6924 12.1508 16.9075 12.5608 16.0626 12.7887C15.2177 13.0166 14.3331 13.0569 13.471 12.9068C12.908 12.8098 12.312 12.9328 11.908 13.3368L9.25 15.9948H7V18.2448H4.75V20.4948H1V17.6768C1 17.0798 1.237 16.5068 1.659 16.0858L8.158 9.58683C8.562 9.18283 8.685 8.58683 8.588 8.02383C8.4462 7.205 8.47604 6.36563 8.67563 5.55894C8.87522 4.75224 9.24021 3.9958 9.74748 3.33756C10.2547 2.67931 10.8932 2.13362 11.6224 1.73507C12.3516 1.33651 13.1557 1.09378 13.9836 1.02226C14.8116 0.950742 15.6453 1.05199 16.4321 1.31959C17.2188 1.58719 17.9414 2.01531 18.5541 2.57681C19.1667 3.13832 19.656 3.82096 19.991 4.58148C20.3259 5.342 20.4993 6.16381 20.5 6.99483Z" stroke="black" stroke-width="1.5" stroke-linecap="round" stroke-linejoin="round"/>
</svg>
